<svg width="800" height="800" viewBox="0 0 800 800" fill="none" xmlns="http://www.w3.org/2000/svg">
<path d="M475.733 12.6578C477.299 12.953 478.864 13.2481 480.477 13.5522C568.13 30.5623 653.144 82.1977 707.824 152.96C709.064 154.504 710.303 156.049 711.58 157.64C775.993 238.402 803.561 341.561 792.786 443.712C784.084 519.154 755.483 588.738 707.824 647.958C706.552 649.553 705.28 651.148 703.97 652.792C686.012 674.872 665.622 695.367 642.621 712.185C639.869 714.216 637.168 716.303 634.469 718.404C568.157 769.394 483.711 795.413 400.54 795.058C399.167 795.056 397.794 795.053 396.379 795.051C374.107 794.983 352.445 793.71 330.479 789.836C329.283 789.65 328.088 789.464 326.857 789.273C250.703 777.399 180.394 736.677 125.228 684.215C124.282 683.317 123.337 682.418 122.362 681.491C108.323 668.045 95.7016 654.144 84.1777 638.499C83.5048 637.599 82.8319 636.7 82.1386 635.773C62.7983 609.865 47.5709 582.105 34.9372 552.387C34.4497 551.241 33.9621 550.096 33.4598 548.915C25.9149 530.797 19.9158 512.715 15.8796 493.533C15.2012 490.313 14.4986 487.1 13.7923 483.886C7.59378 455.319 4.88434 427.114 4.93904 397.897C4.94105 396.787 4.94305 395.677 4.94511 394.533C5.31424 286.823 51.5163 189.561 127.151 114.302C136.661 105.013 146.534 96.5847 157.261 88.7396C160.052 86.6843 162.796 84.5766 165.538 82.4578C216.266 43.6796 277.24 19.8695 339.952 9.50494C341.44 9.23518 342.928 8.96542 344.462 8.68748C387.157 2.15866 433.561 4.58413 475.733 12.6578Z" fill="#1D3557"/>
<path d="M536.555 325.567H593.785V254.053L414.565 170.864V426.27H538.061L536.555 510.919L473.301 540.108L471.795 483.189H414.565V629.136L593.785 545.946V370.811H471.795V259.891L535.049 289.081L536.555 325.567Z" fill="white"/>
<path d="M384.446 629.136V170.864L327.216 197.134V372.27H260.95V229.243L205.226 254.053V545.946L260.95 572.217V426.27H327.216V602.865L384.446 629.136Z" fill="white"/>
<path d="M96.8525 400.062L175.167 328.548V364.305L136.01 400.062L175.167 435.819V471.576L96.8525 400.062Z" fill="white"/>
<path d="M702.284 400.062L623.97 328.548V364.305L663.127 400.062L623.97 435.819V471.576L702.284 400.062Z" fill="white"/>
</svg>