<svg width="1024" height="1024" viewBox="0 0 1024 1024" fill="none" xmlns="http://www.w3.org/2000/svg">
<path d="M588.68 119.816C590.265 120.115 591.85 120.414 593.484 120.722C682.232 137.944 768.308 190.225 823.672 261.872C824.927 263.436 826.182 264.999 827.475 266.61C892.693 348.382 920.606 452.831 909.697 556.258C900.886 632.643 871.927 703.097 823.672 763.057C822.385 764.672 821.097 766.288 819.77 767.952C801.587 790.309 780.943 811.059 757.654 828.087C754.867 830.143 752.133 832.257 749.401 834.384C682.259 886.012 596.757 912.356 512.547 911.996C511.157 911.994 509.766 911.992 508.334 911.989C485.784 911.92 463.851 910.632 441.61 906.709C440.4 906.521 439.19 906.333 437.943 906.139C360.837 894.117 289.649 852.885 233.793 799.768C232.836 798.858 231.878 797.948 230.892 797.01C216.677 783.396 203.898 769.321 192.23 753.481C191.549 752.57 190.867 751.659 190.165 750.72C170.583 724.488 155.166 696.381 142.374 666.292C141.88 665.132 141.387 663.972 140.878 662.777C133.239 644.432 127.165 626.124 123.078 606.702C122.391 603.442 121.68 600.189 120.965 596.935C114.689 568.01 111.945 539.453 112.001 509.871C112.003 508.747 112.005 507.623 112.007 506.465C112.381 397.409 159.16 298.93 235.74 222.731C245.369 213.326 255.366 204.792 266.227 196.849C269.052 194.768 271.831 192.634 274.607 190.489C325.97 151.226 387.706 127.118 451.201 116.624C452.708 116.351 454.215 116.077 455.768 115.796C498.996 109.186 545.981 111.641 588.68 119.816Z" fill="#43B9B0"/>
<path d="M650.264 436.637H708.209V364.229L526.749 280V538.599H651.789L650.264 624.306L586.219 653.86L584.694 596.229H526.749V744L708.209 659.771V482.446H584.694V370.14L648.739 399.694L650.264 436.637Z" fill="white"/>
<path d="M496.251 744V280L438.306 306.599V483.924H371.212V339.108L314.791 364.229V659.771L371.212 686.369V538.599H438.306V717.401L496.251 744Z" fill="white"/>
<path d="M205 512L284.294 439.592V475.796L244.647 512L284.294 548.204V584.408L205 512Z" fill="white"/>
<path d="M818 512L738.706 439.592V475.796L778.353 512L738.706 548.204V584.408L818 512Z" fill="white"/>
</svg>
